<svg xmlns="http://www.w3.org/2000/svg" width="136" height="75" viewBox="0 0 136 75">
    <defs>
        <linearGradient id="qsfdi19b7a" x1="1.444%" x2="100%" y1="35.364%" y2="65.072%">
            <stop offset="0%" stop-color="#04D189"/>
            <stop offset="51.937%" stop-color="#0FC5A4"/>
            <stop offset="100%" stop-color="#1991FF"/>
        </linearGradient>
    </defs>
    <g fill="none" fill-rule="evenodd">
        <g fill="url(#qsfdi19b7a)" fill-rule="nonzero" transform="translate(-684.000000, -4313.000000)">
            <g>
                <path d="M473.244 784.691c19.144 0 30.853-14.187 30.853-36.975v-.097c0-22.788-11.71-36.928-30.853-36.928-19.144 0-30.951 14.14-30.951 36.928v.097c0 22.788 11.807 36.975 30.95 36.975zm0-15.548c-6.511 0-10.058-7.58-10.058-21.427v-.097c0-13.848 3.547-21.38 10.058-21.38 6.51 0 10.009 7.532 10.009 21.38v.097c0 13.847-3.498 21.427-10.01 21.427zm95.476 13.605v-11.175h8.357V755.83h-8.357v-43.195h-28.473c-8.892 14.188-17.2 28.181-25.46 43.827v15.11h34.497v11.176h19.436zm-18.853-26.14H532.23v-.972c5.053-9.815 10.884-19.679 16.666-28.862h.971v29.833z" transform="translate(242.000000, 3603.000000)"/>
            </g>
        </g>
    </g>
</svg>
