<svg xmlns="http://www.w3.org/2000/svg" width="608" height="789" viewBox="0 0 608 789">
    <g fill="none" fill-rule="evenodd" stroke-linecap="round" opacity=".035">
        <g stroke="#FFF" stroke-width="9.2">
            <g>
                <path d="M1036.452 303.913h38.096c85.05 0 165.663-37.958 219.843-103.518L1460 0h0-907.114c-47.766 0-92.914 21.828-122.58 59.266l-181.4 228.92c-1.578 1.992-1.243 4.885.749 6.463.813.644 1.82.994 2.857.994h655.572c4.498 0 8.84 1.648 12.206 4.632l260.32 230.774h0l-132.906 205.749C1005.337 802.386 932.588 842 854.506 842H0h0l172.11-235.515c34.646-47.41 89.84-75.436 148.56-75.436h752.837M246.315 303.913L461.93 494.14" transform="translate(-810 -58)"/>
            </g>
        </g>
    </g>
</svg>
